# xmcd
# 
# Track frame offsets:
#     150
#     18952
#     37920
#     56681
# 
# Disc length: 1008
# 
# Revision: 1
# Processed by: cddbd v1.5.2PL0 Copyright (c) Steve Scherf et al.
# Submitted via: fre:ac v1.0.17
# 
DISCID=2603ee04
DTITLE=小沢健二 - 流動体について／神秘的
DYEAR=2017
DGENRE=JPop
TTITLE0=流動体について
TTITLE1=神秘的
TTITLE2=流動体について (Instrumental)
TTITLE3=神秘的 (Instrumental)
EXTD=TYCT-39050
EXTT0=
EXTT1=
EXTT2=
EXTT3=
PLAYORDER=
